# xmcd
#
# Track frame offsets: 
#        150
#        25210
#        46110
#        74522
#        98776
#        121181
#        141480
#        160453
#        183125
#        199124
#        215094
#        238257
#        260470
#        284573
#
# Disc length: 4150 seconds
#
# Revision: 0
# Processed by: cddbd v1.5.2PL0 Copyright (c) Steve Scherf et al.
# Submitted via: ExactAudioCopy v0.95b4
#
DISCID=d810340e
DTITLE=Fernando Jose Wayra - Wayra
DYEAR=2006
DGENRE=Native American
TTITLE0=Ponui Hapiy
TTITLE1=Pachamama
TTITLE2=Manam wajaj sonjo
TTITLE3=Manam imatapas
TTITLE4=Chejanpunim Waujeichai
TTITLE5=Wayra (Wind)
TTITLE6=Anka -Tuta
TTITLE7=Mamaypa pupunpin
TTITLE8=Nina
TTITLE9=Sayariichik
TTITLE10=Flying condor
TTITLE11=Ananau (pain)
TTITLE12=Manam Imatapas
TTITLE13=Manam Imatapas (nunca olvide nada)
EXTD=
EXTT0=
EXTT1=
EXTT2=
EXTT3=
EXTT4=
EXTT5=
EXTT6=
EXTT7=
EXTT8=
EXTT9=
EXTT10=
EXTT11=
EXTT12=
EXTT13=
PLAYORDER=
